<svg width="26" height="19" viewBox="0 0 26 19" fill="none" xmlns="http://www.w3.org/2000/svg">
<path d="M24.3196 0.40471C24.2106 0.394394 24.1007 0.394394 23.9916 0.40471H1.59196C1.4484 0.406741 1.30579 0.426504 1.16797 0.463468L12.7278 11.0327L24.3196 0.40471Z" fill="white"/>
<path d="M25.5039 1.4248L13.8559 12.0756C13.5561 12.3492 13.1506 12.5028 12.7279 12.5028C12.3052 12.5028 11.8997 12.3492 11.5999 12.0756L0.0559997 1.5056C0.0205114 1.62536 0.00169494 1.74877 0 1.87287V16.5636C0 16.9533 0.16857 17.3269 0.468626 17.6024C0.768683 17.8779 1.17565 18.0327 1.59999 18.0327H23.9999C24.4242 18.0327 24.8312 17.8779 25.1312 17.6024C25.4313 17.3269 25.5999 16.9533 25.5999 16.5636V1.87287C25.5935 1.71984 25.5611 1.56865 25.5039 1.4248ZM2.69598 16.5636H1.58399V15.5132L7.39996 10.2172L8.52795 11.2529L2.69598 16.5636ZM23.9839 16.5636H22.8639L17.0319 11.2529L18.1599 10.2172L23.9759 15.5132L23.9839 16.5636Z" fill="white"/>
</svg>
