<svg width="20" height="19" viewBox="0 0 20 19" fill="none" xmlns="http://www.w3.org/2000/svg">
<path d="M17.8571 0.240234H2.14286C1.57454 0.240234 1.02949 0.44501 0.627628 0.809513C0.225765 1.17402 0 1.66839 0 2.18387L0 16.4372C0 16.9527 0.225765 17.4471 0.627628 17.8116C1.02949 18.1761 1.57454 18.3809 2.14286 18.3809H8.27009V12.2135H5.45759V9.31055H8.27009V7.09804C8.27009 4.58143 9.92188 3.19133 12.4518 3.19133C13.6634 3.19133 14.9304 3.38731 14.9304 3.38731V5.85735H13.5344C12.1589 5.85735 11.7299 6.63157 11.7299 7.42562V9.31055H14.8004L14.3094 12.2135H11.7299V18.3809H17.8571C18.4255 18.3809 18.9705 18.1761 19.3724 17.8116C19.7742 17.4471 20 16.9527 20 16.4372V2.18387C20 1.66839 19.7742 1.17402 19.3724 0.809513C18.9705 0.44501 18.4255 0.240234 17.8571 0.240234V0.240234Z" fill="white"/>
</svg>
