<svg width="20" height="20" viewBox="0 0 20 20" fill="none" xmlns="http://www.w3.org/2000/svg">
<path d="M19.9356 5.78376C19.9244 4.96098 19.7669 4.14638 19.4702 3.3764C19.213 2.72692 18.82 2.13708 18.3165 1.64456C17.813 1.15204 17.21 0.767675 16.546 0.51602C15.7689 0.230696 14.948 0.0764157 14.1182 0.0597497C13.0498 0.0130364 12.711 0 9.99889 0C7.28676 0 6.93914 7.28459e-08 5.8785 0.0597497C5.04904 0.0765383 4.22851 0.230816 3.4518 0.51602C2.78771 0.7675 2.18461 1.1518 1.68107 1.64435C1.17753 2.13689 0.784639 2.72682 0.527543 3.3764C0.235263 4.1359 0.07788 4.9387 0.0621946 5.75009C0.014438 6.79625 0 7.12759 0 9.78047C0 12.4334 -8.27475e-09 12.7723 0.0621946 13.8109C0.0788538 14.6235 0.235451 15.4252 0.527543 16.1867C0.785071 16.8361 1.17825 17.4258 1.68196 17.9181C2.18567 18.4105 2.78883 18.7946 3.45291 19.046C4.22749 19.3428 5.04817 19.5081 5.87961 19.5349C6.94913 19.5816 7.28787 19.5957 10 19.5957C12.7121 19.5957 13.0598 19.5957 14.1204 19.5349C14.9502 19.5189 15.7712 19.365 16.5482 19.0797C17.212 18.8277 17.8149 18.4433 18.3183 17.9508C18.8218 17.4583 19.2149 16.8686 19.4725 16.2193C19.7646 15.4589 19.9211 14.6571 19.9378 13.8434C19.9856 12.7984 20 12.467 20 9.81306C19.9978 7.16018 19.9978 6.82341 19.9356 5.78376ZM9.99223 14.7973C7.15571 14.7973 4.85784 12.5496 4.85784 9.77504C4.85784 7.00048 7.15571 4.75281 9.99223 4.75281C11.354 4.75281 12.6599 5.28194 13.6228 6.22379C14.5857 7.16564 15.1266 8.44306 15.1266 9.77504C15.1266 11.107 14.5857 12.3844 13.6228 13.3263C12.6599 14.2681 11.354 14.7973 9.99223 14.7973ZM15.331 5.73814C14.6679 5.73814 14.1337 5.21451 14.1337 4.56704C14.1337 4.41333 14.1647 4.26111 14.2248 4.11909C14.285 3.97708 14.3731 3.84804 14.4842 3.73934C14.5953 3.63065 14.7273 3.54442 14.8725 3.4856C15.0176 3.42677 15.1733 3.39649 15.3304 3.39649C15.4876 3.39649 15.6432 3.42677 15.7884 3.4856C15.9336 3.54442 16.0655 3.63065 16.1766 3.73934C16.2877 3.84804 16.3759 3.97708 16.436 4.11909C16.4961 4.26111 16.5271 4.41333 16.5271 4.56704C16.5271 5.21451 15.9918 5.73814 15.331 5.73814Z" fill="white"/>
<path d="M10 13.874C12.2091 13.874 14 12.119 14 9.9541C14 7.78919 12.2091 6.03418 10 6.03418C7.79086 6.03418 6 7.78919 6 9.9541C6 12.119 7.79086 13.874 10 13.874Z" fill="white"/>
</svg>
