<svg width="20" height="19" viewBox="0 0 20 19" fill="none" xmlns="http://www.w3.org/2000/svg">
<path d="M17.8571 0.240234H2.14286C0.959821 0.240234 0 1.11082 0 2.18387V16.4372C0 17.5103 0.959821 18.3809 2.14286 18.3809H17.8571C19.0402 18.3809 20 17.5103 20 16.4372V2.18387C20 1.11082 19.0402 0.240234 17.8571 0.240234ZM15.6741 6.67044C15.683 6.78382 15.683 6.90125 15.683 7.01462C15.683 10.5253 12.7366 14.5705 7.35268 14.5705C5.69196 14.5705 4.15179 14.1332 2.85714 13.38C3.09375 13.4043 3.32143 13.4124 3.5625 13.4124C4.93304 13.4124 6.19196 12.9913 7.19643 12.2786C5.91071 12.2543 4.83036 11.489 4.45982 10.4362C4.91071 10.497 5.31696 10.497 5.78125 10.3876C4.44196 10.1406 3.4375 9.07164 3.4375 7.77993V7.74754C3.82589 7.94595 4.28125 8.06743 4.75893 8.08363C4.35733 7.84133 4.02812 7.51263 3.80066 7.12685C3.5732 6.74107 3.45457 6.31022 3.45536 5.87274C3.45536 5.37873 3.59821 4.92521 3.85268 4.53244C5.29464 6.14404 7.45982 7.19684 9.88839 7.31022C9.47321 5.5083 10.9598 4.04653 12.7455 4.04653C13.5893 4.04653 14.3482 4.36642 14.8839 4.88472C15.5446 4.77134 16.1786 4.54863 16.7411 4.24494C16.5223 4.86042 16.0625 5.37873 15.4554 5.70672C16.0446 5.65003 16.6161 5.50021 17.1429 5.29369C16.7455 5.82415 16.2455 6.29386 15.6741 6.67044Z" fill="white"/>
</svg>
